<mxfile host="app.diagrams.net" agent="Mozilla/5.0 (Windows NT 10.0; Win64; x64) AppleWebKit/537.36 (KHTML, like Gecko) Chrome/128.0.0.0 Safari/537.36 OPR/114.0.0.0" version="25.0.1">
  <diagram name="Page-1" id="J6qU1CufO3tT0paZhnID">
    <mxGraphModel dx="1188" dy="743" grid="0" gridSize="10" guides="1" tooltips="1" connect="1" arrows="1" fold="1" page="0" pageScale="1" pageWidth="827" pageHeight="1169" math="0" shadow="0">
      <root>
        <mxCell id="0" />
        <mxCell id="1" parent="0" />
        <mxCell id="n1ISIKl0yZO8UXlDY4mg-215" value="" style="edgeStyle=orthogonalEdgeStyle;rounded=0;orthogonalLoop=1;jettySize=auto;html=1;" edge="1" parent="1" source="n1ISIKl0yZO8UXlDY4mg-1" target="n1ISIKl0yZO8UXlDY4mg-214">
          <mxGeometry relative="1" as="geometry" />
        </mxCell>
        <mxCell id="n1ISIKl0yZO8UXlDY4mg-1" value="Start" style="ellipse;whiteSpace=wrap;html=1;" vertex="1" parent="1">
          <mxGeometry x="-40" y="9" width="100" height="60" as="geometry" />
        </mxCell>
        <mxCell id="n1ISIKl0yZO8UXlDY4mg-173" value="" style="edgeStyle=orthogonalEdgeStyle;rounded=0;orthogonalLoop=1;jettySize=auto;html=1;" edge="1" parent="1" source="n1ISIKl0yZO8UXlDY4mg-123" target="n1ISIKl0yZO8UXlDY4mg-172">
          <mxGeometry relative="1" as="geometry" />
        </mxCell>
        <mxCell id="n1ISIKl0yZO8UXlDY4mg-123" value="i = a&lt;br&gt;j = b" style="rounded=0;whiteSpace=wrap;html=1;" vertex="1" parent="1">
          <mxGeometry x="-67.99" y="197" width="156" height="57" as="geometry" />
        </mxCell>
        <mxCell id="n1ISIKl0yZO8UXlDY4mg-272" value="" style="edgeStyle=orthogonalEdgeStyle;rounded=0;orthogonalLoop=1;jettySize=auto;html=1;" edge="1" parent="1" source="n1ISIKl0yZO8UXlDY4mg-172" target="n1ISIKl0yZO8UXlDY4mg-271">
          <mxGeometry relative="1" as="geometry" />
        </mxCell>
        <mxCell id="n1ISIKl0yZO8UXlDY4mg-273" value="true" style="edgeLabel;html=1;align=center;verticalAlign=middle;resizable=0;points=[];" vertex="1" connectable="0" parent="n1ISIKl0yZO8UXlDY4mg-272">
          <mxGeometry x="0.0476" y="-1" relative="1" as="geometry">
            <mxPoint as="offset" />
          </mxGeometry>
        </mxCell>
        <mxCell id="n1ISIKl0yZO8UXlDY4mg-284" style="edgeStyle=orthogonalEdgeStyle;rounded=0;orthogonalLoop=1;jettySize=auto;html=1;exitX=0;exitY=0.5;exitDx=0;exitDy=0;entryX=0;entryY=0.5;entryDx=0;entryDy=0;" edge="1" parent="1" source="n1ISIKl0yZO8UXlDY4mg-172" target="n1ISIKl0yZO8UXlDY4mg-282">
          <mxGeometry relative="1" as="geometry">
            <Array as="points">
              <mxPoint x="-328" y="325" />
              <mxPoint x="-328" y="741" />
            </Array>
          </mxGeometry>
        </mxCell>
        <mxCell id="n1ISIKl0yZO8UXlDY4mg-285" value="false" style="edgeLabel;html=1;align=center;verticalAlign=middle;resizable=0;points=[];" vertex="1" connectable="0" parent="n1ISIKl0yZO8UXlDY4mg-284">
          <mxGeometry x="-0.7546" relative="1" as="geometry">
            <mxPoint as="offset" />
          </mxGeometry>
        </mxCell>
        <mxCell id="n1ISIKl0yZO8UXlDY4mg-172" value="i &amp;gt; 0" style="rhombus;whiteSpace=wrap;html=1;rounded=0;" vertex="1" parent="1">
          <mxGeometry x="-79.87" y="296" width="179.75" height="58" as="geometry" />
        </mxCell>
        <mxCell id="n1ISIKl0yZO8UXlDY4mg-216" value="" style="edgeStyle=orthogonalEdgeStyle;rounded=0;orthogonalLoop=1;jettySize=auto;html=1;" edge="1" parent="1" source="n1ISIKl0yZO8UXlDY4mg-214" target="n1ISIKl0yZO8UXlDY4mg-123">
          <mxGeometry relative="1" as="geometry" />
        </mxCell>
        <mxCell id="n1ISIKl0yZO8UXlDY4mg-214" value="a , b" style="shape=parallelogram;perimeter=parallelogramPerimeter;whiteSpace=wrap;html=1;fixedSize=1;" vertex="1" parent="1">
          <mxGeometry x="-50" y="95" width="120" height="60" as="geometry" />
        </mxCell>
        <mxCell id="n1ISIKl0yZO8UXlDY4mg-275" value="" style="edgeStyle=orthogonalEdgeStyle;rounded=0;orthogonalLoop=1;jettySize=auto;html=1;" edge="1" parent="1" source="n1ISIKl0yZO8UXlDY4mg-271" target="n1ISIKl0yZO8UXlDY4mg-274">
          <mxGeometry relative="1" as="geometry" />
        </mxCell>
        <mxCell id="n1ISIKl0yZO8UXlDY4mg-276" value="true" style="edgeLabel;html=1;align=center;verticalAlign=middle;resizable=0;points=[];" vertex="1" connectable="0" parent="n1ISIKl0yZO8UXlDY4mg-275">
          <mxGeometry x="-0.1667" relative="1" as="geometry">
            <mxPoint as="offset" />
          </mxGeometry>
        </mxCell>
        <mxCell id="n1ISIKl0yZO8UXlDY4mg-291" value="" style="edgeStyle=orthogonalEdgeStyle;rounded=0;orthogonalLoop=1;jettySize=auto;html=1;" edge="1" parent="1" source="n1ISIKl0yZO8UXlDY4mg-271" target="n1ISIKl0yZO8UXlDY4mg-290">
          <mxGeometry relative="1" as="geometry" />
        </mxCell>
        <mxCell id="n1ISIKl0yZO8UXlDY4mg-292" value="false" style="edgeLabel;html=1;align=center;verticalAlign=middle;resizable=0;points=[];" vertex="1" connectable="0" parent="n1ISIKl0yZO8UXlDY4mg-291">
          <mxGeometry x="0.0217" y="1" relative="1" as="geometry">
            <mxPoint as="offset" />
          </mxGeometry>
        </mxCell>
        <mxCell id="n1ISIKl0yZO8UXlDY4mg-271" value="j &amp;gt; 0" style="rhombus;whiteSpace=wrap;html=1;rounded=0;" vertex="1" parent="1">
          <mxGeometry x="-79.87" y="392" width="179.75" height="58" as="geometry" />
        </mxCell>
        <mxCell id="n1ISIKl0yZO8UXlDY4mg-280" value="" style="edgeStyle=orthogonalEdgeStyle;rounded=0;orthogonalLoop=1;jettySize=auto;html=1;" edge="1" parent="1" source="n1ISIKl0yZO8UXlDY4mg-274" target="n1ISIKl0yZO8UXlDY4mg-279">
          <mxGeometry relative="1" as="geometry" />
        </mxCell>
        <mxCell id="n1ISIKl0yZO8UXlDY4mg-281" value="true" style="edgeLabel;html=1;align=center;verticalAlign=middle;resizable=0;points=[];" vertex="1" connectable="0" parent="n1ISIKl0yZO8UXlDY4mg-280">
          <mxGeometry x="-0.2194" relative="1" as="geometry">
            <mxPoint as="offset" />
          </mxGeometry>
        </mxCell>
        <mxCell id="n1ISIKl0yZO8UXlDY4mg-287" value="" style="edgeStyle=orthogonalEdgeStyle;rounded=0;orthogonalLoop=1;jettySize=auto;html=1;" edge="1" parent="1" source="n1ISIKl0yZO8UXlDY4mg-274" target="n1ISIKl0yZO8UXlDY4mg-286">
          <mxGeometry relative="1" as="geometry" />
        </mxCell>
        <mxCell id="n1ISIKl0yZO8UXlDY4mg-288" value="false" style="edgeLabel;html=1;align=center;verticalAlign=middle;resizable=0;points=[];" vertex="1" connectable="0" parent="n1ISIKl0yZO8UXlDY4mg-287">
          <mxGeometry x="-0.4034" y="1" relative="1" as="geometry">
            <mxPoint as="offset" />
          </mxGeometry>
        </mxCell>
        <mxCell id="n1ISIKl0yZO8UXlDY4mg-274" value="a % i === 0 &amp;amp;&amp;amp;&lt;br&gt;b % j === 0 &amp;amp;&amp;amp;&lt;br&gt;i === j" style="rhombus;whiteSpace=wrap;html=1;rounded=0;" vertex="1" parent="1">
          <mxGeometry x="-79.88" y="498" width="179.75" height="79" as="geometry" />
        </mxCell>
        <mxCell id="n1ISIKl0yZO8UXlDY4mg-283" value="" style="edgeStyle=orthogonalEdgeStyle;rounded=0;orthogonalLoop=1;jettySize=auto;html=1;" edge="1" parent="1" source="n1ISIKl0yZO8UXlDY4mg-279" target="n1ISIKl0yZO8UXlDY4mg-282">
          <mxGeometry relative="1" as="geometry" />
        </mxCell>
        <mxCell id="n1ISIKl0yZO8UXlDY4mg-279" value="print i" style="shape=parallelogram;perimeter=parallelogramPerimeter;whiteSpace=wrap;html=1;fixedSize=1;rounded=0;" vertex="1" parent="1">
          <mxGeometry x="-49.98499999999999" y="616" width="120" height="60" as="geometry" />
        </mxCell>
        <mxCell id="n1ISIKl0yZO8UXlDY4mg-282" value="End" style="ellipse;whiteSpace=wrap;html=1;rounded=0;" vertex="1" parent="1">
          <mxGeometry x="-29.98" y="715" width="80" height="51" as="geometry" />
        </mxCell>
        <mxCell id="n1ISIKl0yZO8UXlDY4mg-289" style="edgeStyle=orthogonalEdgeStyle;rounded=0;orthogonalLoop=1;jettySize=auto;html=1;exitX=0.5;exitY=0;exitDx=0;exitDy=0;entryX=1;entryY=0.5;entryDx=0;entryDy=0;" edge="1" parent="1" source="n1ISIKl0yZO8UXlDY4mg-286" target="n1ISIKl0yZO8UXlDY4mg-271">
          <mxGeometry relative="1" as="geometry" />
        </mxCell>
        <mxCell id="n1ISIKl0yZO8UXlDY4mg-286" value="j = j - 1" style="whiteSpace=wrap;html=1;rounded=0;" vertex="1" parent="1">
          <mxGeometry x="177.995" y="507.5" width="120" height="60" as="geometry" />
        </mxCell>
        <mxCell id="n1ISIKl0yZO8UXlDY4mg-290" value="i = i - 1" style="whiteSpace=wrap;html=1;rounded=0;" vertex="1" parent="1">
          <mxGeometry x="-270.995" y="394" width="120" height="60" as="geometry" />
        </mxCell>
        <mxCell id="n1ISIKl0yZO8UXlDY4mg-293" style="edgeStyle=orthogonalEdgeStyle;rounded=0;orthogonalLoop=1;jettySize=auto;html=1;exitX=0.5;exitY=0;exitDx=0;exitDy=0;entryX=0.172;entryY=0.707;entryDx=0;entryDy=0;entryPerimeter=0;" edge="1" parent="1" source="n1ISIKl0yZO8UXlDY4mg-290" target="n1ISIKl0yZO8UXlDY4mg-172">
          <mxGeometry relative="1" as="geometry" />
        </mxCell>
      </root>
    </mxGraphModel>
  </diagram>
</mxfile>
